<svg width="886" height="154" viewBox="0 0 886 154" fill="none" xmlns="http://www.w3.org/2000/svg">
<path d="M214.633 94.1409C216.655 103.308 222.856 108.161 233.911 108.161C245.774 108.161 250.492 102.634 250.492 95.4889C250.492 87.8049 246.717 83.6259 231.484 79.8513C213.555 75.5374 207.353 69.3363 207.353 58.6864C207.353 47.3626 215.712 38.1957 232.697 38.1957C250.762 38.1957 258.176 48.7107 259.254 58.6864H249.009C247.661 51.9461 243.482 46.4189 232.293 46.4189C222.991 46.4189 217.868 50.598 217.868 57.8776C217.868 65.0224 222.182 67.8534 235.528 71.0888C257.232 76.3463 261.007 84.8391 261.007 94.5453C261.007 106.813 251.975 116.384 233.371 116.384C214.229 116.384 206.005 106.004 204.522 94.2757H214.633V94.1409Z" fill="#FFFFFF"/>
<path d="M288.373 48.0371H263.838V39.4094H323.153V48.0371H298.618V115.306H288.508V48.0371H288.373Z" fill="#FFFFFF"/>
<path d="M341.082 81.8738V115.306H331.106V39.4094H360.764C376.401 39.4094 384.625 47.9023 384.625 59.7653C384.625 69.6063 378.963 75.6726 371.683 77.6948C377.884 79.3124 383.277 84.0307 383.277 97.1071V100.342C383.277 105.6 383.007 112.206 384.355 115.441H374.514C373.166 112.206 373.166 106.274 373.166 99.1292V97.5115C373.166 86.7269 370.065 82.0086 356.45 82.0086H341.082V81.8738ZM341.082 73.3809H357.663C369.257 73.3809 374.379 69.0671 374.379 60.4394C374.379 52.3509 369.122 47.7674 358.742 47.7674H341.082V73.3809Z" fill="#FFFFFF"/>
<path d="M446.637 79.8517H408.891V106.678H450.277L448.929 115.306H398.915V39.4094H448.389V48.0371H408.756V71.224H446.502V79.8517H446.637Z" fill="#FFFFFF"/>
<path d="M473.598 92.5233L465.375 115.306H455.399L482.496 39.2743H494.898L523.073 115.306H512.288L503.795 92.5233H473.598ZM501.369 83.8956C494.089 63.9441 490.18 53.2943 488.562 47.4976H488.427C486.54 53.9683 482.091 66.7751 476.295 83.8956H501.369Z" fill="#FFFFFF"/>
<path d="M597.217 82.9523C597.217 68.7974 597.352 54.5078 597.756 46.5542H597.217C593.982 58.8217 581.714 91.4451 572.952 115.306H563.92C557.314 95.8938 544.642 59.3609 541.137 46.2846H540.867C541.407 55.0471 541.676 71.898 541.676 84.9744V115.306H532.24V39.4094H547.203C555.831 63.0007 566.346 93.4673 569.042 103.039H569.177C570.93 95.759 583.467 62.3267 592.364 39.4094H606.923V115.441H597.217V82.9523Z" fill="#FFFFFF"/>
<path d="M627.01 94.5455C629.167 104.252 635.772 109.779 647.635 109.779C660.712 109.779 665.7 103.443 665.7 95.624C665.7 87.4007 661.925 82.5476 645.883 78.6382C628.897 74.4592 622.292 68.7972 622.292 57.8778C622.292 47.228 630.11 37.9263 646.692 37.9263C664.082 37.9263 671.362 48.3065 672.305 57.8778H664.352C662.734 50.3286 657.881 44.5318 646.287 44.5318C636.042 44.5318 630.38 49.2501 630.38 57.2038C630.38 65.0226 635.098 68.1232 648.849 71.4934C670.418 76.7509 673.923 85.3786 673.923 94.8151C673.923 106.543 665.295 116.115 647.231 116.115C628.088 116.115 620.539 105.33 619.056 94.4107H627.01V94.5455Z" fill="#B6A4E0"/>
<path d="M686.864 39.1392H694.683V77.829C700.615 71.8975 721.24 52.0808 734.182 39.1392H744.158L710.59 71.4931L745.91 115.44H736.339L705.063 76.4809L694.683 85.7827V115.44H686.864V39.1392Z" fill="#B6A4E0"/>
<path d="M761.144 39.1392V115.306H753.325V39.1392H761.144Z" fill="#B6A4E0"/>
<path d="M780.017 39.1392H787.836V108.43H828.278L827.065 115.306H780.151V39.1392H780.017Z" fill="#B6A4E0"/>
<path d="M836.77 39.1392H844.589V108.43H885.031L883.818 115.306H836.905V39.1392H836.77Z" fill="#B6A4E0"/>
<path d="M79.9602 93.7367C79.9602 93.7367 93.8454 86.3223 101.799 74.7288C107.461 66.3707 111.101 54.1032 111.101 41.7009C98.6985 41.7009 86.431 45.3407 78.0729 51.0027C66.4794 58.9563 59.065 72.8415 59.065 72.8415C59.065 72.8415 39.5179 70.0105 29.1377 81.8736C29.1377 81.8736 46.2583 85.6482 56.7733 96.1632C67.2883 106.678 71.0629 123.799 71.0629 123.799C82.926 113.419 79.9602 93.7367 79.9602 93.7367ZM73.4894 76.7509L68.6364 71.8979L78.3425 62.1917L83.1956 67.0448L73.4894 76.7509ZM81.0387 84.3002L76.3204 79.4471L86.0265 69.7409L90.8796 74.594L81.0387 84.3002Z" fill="#B6A4E0"/>
<path d="M31.6987 92.9279C38.1695 94.1411 46.1232 97.1069 50.9762 101.825C55.5597 106.409 58.2558 114.767 59.8735 121.103" stroke="#B6A4E0" stroke-width="3" stroke-miterlimit="10" stroke-linecap="round"/>
<path d="M42.6187 144.02C70.9283 158.714 106.652 154.13 130.378 130.404C159.767 101.016 159.767 53.4291 130.378 24.0411C100.99 -5.34702 53.4033 -5.34702 24.0152 24.0411C-0.25017 48.3064 -4.42921 84.9741 11.3433 113.553" stroke="#B6A4E0" stroke-width="3" stroke-miterlimit="10" stroke-linecap="round"/>
</svg>